<svg id="ewq23iamRx81" xmlns="http://www.w3.org/2000/svg" xmlns:xlink="http://www.w3.org/1999/xlink" viewBox="0 0 500 500" shape-rendering="geometricPrecision" text-rendering="geometricPrecision"><g transform="matrix(1.317558 0 0 1.309357-13.493714-12.869575)"><g transform="translate(-.000001 292.714649)"><ellipse rx="36.051503" ry="36.051503" transform="matrix(.590399 0 0 0.590399 348.433933 54.333797)" stroke-width="0"/><ellipse rx="36.051503" ry="36.051503" transform="matrix(.590399 0 0 0.590399 250 53.710797)" stroke-width="0"/><ellipse rx="36.051503" ry="36.051503" transform="matrix(.590399 0 0 0.590399 153.087873 53.710797)" stroke-width="0"/><ellipse rx="36.051503" ry="36.051503" transform="matrix(.590399 0 0 0.590399 51.538943 53.710797)" stroke-width="0"/></g><g transform="translate(.000021 195.977704)"><ellipse rx="36.051503" ry="36.051503" transform="matrix(.590399 0 0 0.590399 348.433933 54.333797)" stroke-width="0"/><ellipse rx="36.051503" ry="36.051503" transform="matrix(.590399 0 0 0.590399 250 53.710797)" stroke-width="0"/><ellipse rx="36.051503" ry="36.051503" transform="matrix(.590399 0 0 0.590399 153.087873 53.710797)" stroke-width="0"/><ellipse rx="36.051503" ry="36.051503" transform="matrix(.590399 0 0 0.590399 51.538943 53.710797)" stroke-width="0"/></g><g transform="translate(-.000001 97.810934)"><ellipse rx="36.051503" ry="36.051503" transform="matrix(.590399 0 0 0.590399 348.433933 54.333797)" stroke-width="0"/><ellipse rx="36.051503" ry="36.051503" transform="matrix(.590399 0 0 0.590399 250 53.710797)" stroke-width="0"/><ellipse rx="36.051503" ry="36.051503" transform="matrix(.590399 0 0 0.590399 153.087873 53.710797)" stroke-width="0"/><ellipse rx="36.051503" ry="36.051503" transform="matrix(.590399 0 0 0.590399 51.538943 53.710797)" stroke-width="0"/></g><g transform="translate(.000022 0.765438)"><ellipse rx="36.051503" ry="36.051503" transform="matrix(.590399 0 0 0.590399 348.433933 54.333797)" stroke-width="0"/><ellipse rx="36.051503" ry="36.051503" transform="matrix(.590399 0 0 0.590399 250 53.710797)" stroke-width="0"/><ellipse rx="36.051503" ry="36.051503" transform="matrix(.590399 0 0 0.590399 153.087873 53.710797)" stroke-width="0"/><ellipse rx="36.051503" ry="36.051503" transform="matrix(.590399 0 0 0.590399 51.538943 53.710797)" stroke-width="0"/></g></g></svg>
