<svg width="54" height="54" viewBox="0 0 54 54" fill="none" xmlns="http://www.w3.org/2000/svg">
<rect x="26" y="5" width="28" height="13" rx="2" fill="#6986C9"/>
<path d="M32.69 12.48L30.31 11.575V10.925L32.69 10.02V10.645L30.545 11.425V11.075L32.69 11.855V12.48ZM32.8282 13.5L34.4782 8.79H35.1732L33.5232 13.5H32.8282ZM36.1488 13.04C35.8955 13.04 35.6671 12.9833 35.4638 12.87C35.2605 12.7533 35.0988 12.5917 34.9788 12.385C34.8621 12.1783 34.8038 11.935 34.8038 11.655C34.8038 11.3717 34.8621 11.1267 34.9788 10.92C35.0988 10.7133 35.2605 10.5533 35.4638 10.44C35.6671 10.3267 35.8955 10.27 36.1488 10.27C36.3755 10.27 36.5738 10.32 36.7438 10.42C36.9138 10.52 37.0455 10.6717 37.1388 10.875C37.2321 11.0783 37.2788 11.3383 37.2788 11.655C37.2788 11.9683 37.2338 12.2283 37.1438 12.435C37.0538 12.6383 36.9238 12.79 36.7538 12.89C36.5871 12.99 36.3855 13.04 36.1488 13.04ZM36.2838 12.4C36.4105 12.4 36.5255 12.37 36.6288 12.31C36.7321 12.25 36.8138 12.165 36.8738 12.055C36.9371 11.9417 36.9688 11.8083 36.9688 11.655C36.9688 11.4983 36.9371 11.365 36.8738 11.255C36.8138 11.145 36.7321 11.06 36.6288 11C36.5255 10.94 36.4105 10.91 36.2838 10.91C36.1538 10.91 36.0371 10.94 35.9338 11C35.8305 11.06 35.7471 11.145 35.6838 11.255C35.6238 11.365 35.5938 11.4983 35.5938 11.655C35.5938 11.8083 35.6238 11.9417 35.6838 12.055C35.7471 12.165 35.8305 12.25 35.9338 12.31C36.0371 12.37 36.1538 12.4 36.2838 12.4ZM36.9888 13V12.45L37.0038 11.65L36.9538 10.855V9.29H37.7338V13H36.9888ZM39.7907 13.04C39.484 13.04 39.214 12.98 38.9807 12.86C38.7507 12.74 38.5724 12.5767 38.4457 12.37C38.319 12.16 38.2557 11.9217 38.2557 11.655C38.2557 11.385 38.3174 11.1467 38.4407 10.94C38.5674 10.73 38.739 10.5667 38.9557 10.45C39.1724 10.33 39.4174 10.27 39.6907 10.27C39.954 10.27 40.1907 10.3267 40.4007 10.44C40.614 10.55 40.7824 10.71 40.9057 10.92C41.029 11.1267 41.0907 11.375 41.0907 11.665C41.0907 11.695 41.089 11.73 41.0857 11.77C41.0824 11.8067 41.079 11.8417 41.0757 11.875H38.8907V11.42H40.6657L40.3657 11.555C40.3657 11.415 40.3374 11.2933 40.2807 11.19C40.224 11.0867 40.1457 11.0067 40.0457 10.95C39.9457 10.89 39.829 10.86 39.6957 10.86C39.5624 10.86 39.444 10.89 39.3407 10.95C39.2407 11.0067 39.1624 11.0883 39.1057 11.195C39.049 11.2983 39.0207 11.4217 39.0207 11.565V11.685C39.0207 11.8317 39.0524 11.9617 39.1157 12.075C39.1824 12.185 39.274 12.27 39.3907 12.33C39.5107 12.3867 39.6507 12.415 39.8107 12.415C39.954 12.415 40.079 12.3933 40.1857 12.35C40.2957 12.3067 40.3957 12.2417 40.4857 12.155L40.9007 12.605C40.7774 12.745 40.6224 12.8533 40.4357 12.93C40.249 13.0033 40.034 13.04 39.7907 13.04ZM42.2912 13L41.1612 10.31H41.9662L42.9062 12.625H42.5062L43.4812 10.31H44.2312L43.0962 13H42.2912ZM44.4995 12.48V11.855L46.6445 11.075V11.425L44.4995 10.645V10.02L46.8795 10.925V11.575L44.4995 12.48Z" fill="white"/>
<path d="M15.12 40L9.864 30.46H8.388V40H2.232V14.728H12.564C14.556 14.728 16.248 15.076 17.64 15.772C19.056 16.468 20.112 17.428 20.808 18.652C21.504 19.852 21.852 21.196 21.852 22.684C21.852 24.364 21.372 25.864 20.412 27.184C19.476 28.504 18.084 29.44 16.236 29.992L22.068 40H15.12ZM8.388 26.104H12.204C13.332 26.104 14.172 25.828 14.724 25.276C15.3 24.724 15.588 23.944 15.588 22.936C15.588 21.976 15.3 21.22 14.724 20.668C14.172 20.116 13.332 19.84 12.204 19.84H8.388V26.104ZM41.5564 14.728V31.936C41.5564 34.6 40.8004 36.652 39.2884 38.092C37.8004 39.532 35.7844 40.252 33.2404 40.252C30.5764 40.252 28.4404 39.496 26.8324 37.984C25.2244 36.472 24.4204 34.324 24.4204 31.54H30.5404C30.5404 32.596 30.7564 33.4 31.1884 33.952C31.6204 34.48 32.2444 34.744 33.0604 34.744C33.8044 34.744 34.3804 34.504 34.7884 34.024C35.1964 33.544 35.4004 32.848 35.4004 31.936V14.728H41.5564Z" fill="black"/>
</svg>
